<svg width="19" height="20" viewBox="0 0 19 20" fill="none" xmlns="http://www.w3.org/2000/svg">
<path d="M18.6308 7.41256C18.5731 7.24274 18.467 7.09353 18.3255 6.98335C18.184 6.87316 18.0134 6.80681 17.8346 6.79251L12.6055 6.377L10.3426 1.36798C10.2706 1.20665 10.1534 1.06963 10.0051 0.973442C9.85692 0.877257 9.68403 0.826025 9.50733 0.825928C9.33064 0.825831 9.15769 0.876874 9.00937 0.972896C8.86104 1.06892 8.74368 1.20582 8.67144 1.36707L6.40862 6.377L1.17947 6.79251C1.00378 6.80642 0.835815 6.87066 0.695677 6.97754C0.555539 7.08442 0.449159 7.2294 0.389264 7.39516C0.329369 7.56091 0.318495 7.74041 0.357942 7.91218C0.39739 8.08395 0.485489 8.24072 0.6117 8.36373L4.47601 12.1308L3.10933 18.0488C3.06783 18.2279 3.08113 18.4154 3.1475 18.5869C3.21388 18.7584 3.33026 18.9059 3.48154 19.0105C3.63283 19.115 3.81204 19.1716 3.99591 19.173C4.17979 19.1744 4.35984 19.1205 4.5127 19.0183L9.50704 15.6888L14.5014 19.0183C14.6576 19.1221 14.8419 19.1755 15.0294 19.1713C15.2169 19.1672 15.3986 19.1058 15.5501 18.9953C15.7017 18.8848 15.8158 18.7306 15.877 18.5533C15.9383 18.3761 15.9438 18.1843 15.8928 18.0039L14.2152 12.1336L18.3758 8.38941C18.6482 8.14359 18.7482 7.76019 18.6308 7.41256Z" fill="#F3CD03"/>
</svg>
